<?xml version="1.0" standalone="no"?>
<!DOCTYPE svg PUBLIC "-//W3C//DTD SVG 1.1//EN" "http://www.w3.org/Graphics/SVG/1.1/DTD/svg11.dtd" >
<svg xmlns="http://www.w3.org/2000/svg">
<metadata>
Created by FontPrep 20130207 at Tue Aug 20 10:36:51 2013
 By David Woods
</metadata>
<defs>
<font id="ae1318678b26194ad8e86e1ff3a7483f" >
  <font-face 
    font-family="icomoon"
    font-weight="400"
    font-stretch="normal"
    units-per-em="2048"
    panose-1="2 0 5 3 0 0 0 0 0 0"
    ascent="1920"
    descent="-128"
    x-height="1152"
    cap-height="1728"
    bbox="-1.33333 -131.258 2304 1921.33"
    underline-thickness="0"
    underline-position="0"
    unicode-range="U+0021-F000"
  />
<missing-glyph 
 />
    <glyph glyph-name=".notdef" 
 />
    <glyph glyph-name=".notdef" 
 />
    <glyph glyph-name=".null" horiz-adv-x="0" 
 />
    <glyph glyph-name="nonmarkingreturn" horiz-adv-x="680" 
 />
    <glyph glyph-name="exclam" unicode="!" 
d="M1376 954q0 134 -12 258t-48 242t-110 182t-186 64t-184 -62t-106 -182t-46 -240t-12 -260t4 -214t14 -180t32 -178t60 -142t98 -106t140 -36t142 36t100 106t62 142t36 178t14 182t2 210zM1018 1920q422 0 696 -280t274 -736q0 -416 -274 -724t-692 -308t-690 308
t-272 724q0 456 268 736t690 280z" />
    <glyph glyph-name="quotedbl" unicode="&#x22;" 
d="M640 1344q0 80 56 136t136 56t136 -56t56 -136t-56 -136t-136 -56h128q80 0 136 -38t56 -90v-128h-640v128q0 52 56 90t136 38h128q-80 0 -136 56t-56 136zM512 512h896v-128h-896v128zM512 768h896v-128h-896v128zM1664 128v1536h-1408v-1536h1408zM1728 1920
q80 0 136 -56t56 -136v-1664q0 -80 -56 -136t-136 -56h-1536q-80 0 -136 56t-56 136v1664q0 80 56 136t136 56h1536z" />
    <glyph glyph-name="numbersign" unicode="#" 
d="M2048 1194q0 -38 -6 -148t-26 -216t-74 -238t-132 -238t-214 -200t-308 -134q-92 -24 -142 -26t-62 -6q-615 -31 -916 488q-120 212 -136 404q-12 -56 -16 -96q-12 228 36 372q-36 -60 -52 -112q43 243 132 372v12q-8 112 22 202t50 112t32 34q4 -96 100 -184
q24 -4 44 -4q100 20 208 -4q64 80 196 108l76 4q-116 -68 -140 -196q44 -92 110 -92h94q68 0 72 -12v-8q4 -4 0 -12v-8q-4 -40 -28 -60q-4 0 -4 -2t-4 -2q0 -4 -36 -24q-48 -32 -88 -58t-40 -38v-4h-4q12 -24 18 -60t2 -44v-36q-48 24 -92 32q-56 -24 -62 -46t-10 -38
q0 -76 108 -140q44 -28 90 -32t72 4t64 24q161 68 250 -36q24 -24 10 -46t-42 -14q-12 -4 -16 -2t-18 -4t-20 -8t-20 -12t-22 -14t-26 -18t-30 -18q-48 -36 -138 -52t-150 0q58 -44 145 -90t133 -56t116 -10q206 0 378 252q12 20 16 24q8 0 -12 -82t-16 -82q68 48 94 184
t6 264q48 -20 68 -76l8 -8q24 76 28 198t-24 202q52 -16 96 -104q-24 126 -92 212q-68 87 -118 118q-98 60 -132 71t-114 31q100 28 204 28q-29 48 -198 84q-38 8 -64 14l-22 6q112 32 352 -48q88 -28 160 -102t90 -110t26 -60v16q9 44 -36 152q30 0 83 -134t85 -414l24 152
q4 -20 4 -58z" />
    <glyph glyph-name="dollar" unicode="$" 
d="M0 896q0 268 132 504l416 -728q64 -132 192 -216t284 -84q72 0 140 20l-292 -508q-372 56 -622 342t-250 670zM652 896q0 152 110 262t262 110t262 -110t110 -262t-110 -262t-262 -110t-262 110t-110 262zM2048 896q0 -420 -296 -720t-716 -304l420 724q92 136 92 300
q0 220 -156 376h584q72 -180 72 -376zM1042 1920q258 0 492 -136t370 -368h-836q-20 4 -44 4q-180 0 -322 -110t-186 -282l-292 508q144 180 352 282t466 102z" />
    <glyph glyph-name="percent" unicode="%" 
d="M1920 128h128v-128h-128v-128h-128v128h128v128zM1792 1024h128v-128h-128v128zM1536 1024h128v-128h128v-128h128v-128h-128v128h-128v128h-128v128zM1280 1024h128v-128h128v-128h-128v-128h128v-128h128v-128h128v128h128v-128h-128v-128h-128v-128h128v-128h-128
v-128h-128v128h128v128h-128v128h128v128h-128v128h-128v-128h-128v128h128v128h-128v128h128v128h-128v128zM512 1024h128v-128h128v128h128v-128h-128v-128h-128v128h-128v128zM0 1024h128v-128h-128v128zM256 1024h128v-128h-128v128zM896 1920h128v-128h128v-128h-128
v-128h128v-128h-128v-128h128v-128h-128v-128h-128v128h128v128h-128v128h128v128h-128v128h128v128h-128v128zM256 384h256v-256h-256v256zM768 640v-768h-768v768h768zM640 512h-512v-512h512v512zM1536 1664h256v-256h-256v256zM2048 1920v-768h-768v768h768zM1920 1792
h-512v-512h512v512zM256 1664h256v-256h-256v256zM768 1920v-768h-768v768h768zM640 1792h-512v-512h512v512zM1408 0v-128h-128v128h128zM1408 0v128h128v-128h-128zM1408 128h-128v128h128v-128zM1280 256h-128v128h128v-128zM1920 384h128v-128h-128v128zM1664 512v128
h128v-128h-128zM1280 512h-128v128h128v-128zM1920 512v128h128v-128h-128zM1280 768h-128v128h128v-128zM256 896v-128h-128v128h128zM1920 768v128h128v-128h-128zM1024 0h128v-128h-128v128zM1024 0h-128v128h128v-128zM1024 128v128h128v-128h-128zM1024 256h-128v128
h128v-128zM1024 384v128h128v-128h-128zM1024 512h-128v128h128v-128zM1024 640v128h128v-128h-128zM1024 768h-128v128h128v-128z" />
    <glyph glyph-name="ampersand" unicode="&#x26;" 
d="M776 1280q0 104 72 176t176 72t176 -72t72 -176t-72 -176t-176 -72t-176 72t-72 176zM1024 888q164 0 278 114t114 278t-114 278t-278 114t-278 -114t-114 -278t114 -278t278 -114zM1024 1920q264 0 452 -188t188 -452q0 -180 -70 -394t-154 -376t-216 -361t-200 -277
l-64 80q-152 188 -350 554q-94 174 -160 384t-66 390q0 264 188 452t452 188z" />
    <glyph glyph-name="quotesingle" unicode="'" 
d="M512 1280h896v-128h-896v128zM512 512h896v-128h-896v128zM512 768h896v-128h-896v128zM512 1024h896v-128h-896v128zM1664 128v1536h-1408v-1536h1408zM1728 1920q80 0 136 -56t56 -136v-1664q0 -80 -56 -136t-136 -56h-1536q-80 0 -136 56t-56 136v1664q0 80 56 136
t136 56h1536z" />
    <glyph glyph-name="parenleft" unicode="(" 
d="M1664 128v1024h-512v512h-768v-1536h1280zM1280 1648v-368h368q0 8 -4 12q-20 52 -40 72l-240 240q-20 20 -72 40q-4 4 -12 4zM1920 1216v-1152q0 -80 -56 -136t-136 -56h-1408q-80 0 -136 56t-56 136v1664q0 80 56 136t136 56h896q80 0 176 -40t152 -96l240 -240
q56 -56 96 -152t40 -176z" />
    <glyph glyph-name="parenright" unicode=")" 
d="M512 384h1024v-128h-1024v128zM512 640h1024v-128h-1024v128zM512 896h1024v-128h-1024v128zM1664 128v1024h-512v512h-768v-1536h1280zM1280 1648v-368h368q0 8 -4 12q-20 52 -40 72l-240 240q-20 20 -72 40q-4 4 -12 4zM1920 1216v-1152q0 -80 -56 -136t-136 -56h-1408
q-80 0 -136 56t-56 136v1664q0 80 56 136t136 56h896q80 0 176 -40t152 -96l240 -240q56 -56 96 -152t40 -176z" />
    <glyph glyph-name="asterisk" unicode="*" 
d="M2048 448q0 -132 -132 -226t-316 -94t-316 94t-132 226t132 226t316 94q100 0 192 -32v660l-896 -244v-960q0 -132 -132 -226t-316 -94t-316 94t-132 226t132 226t316 94q100 0 192 -32v1056l1408 384v-1472z" />
    <glyph glyph-name="plus" unicode="+" 
d="M1920 1024v128h-256v-128h256zM1024 136q236 0 402 166t166 402t-166 402t-402 166t-402 -166t-166 -402t166 -402t402 -166zM1920 1408q52 0 90 -38t38 -90v-1152q0 -52 -38 -90t-90 -38h-1792q-52 0 -90 38t-38 90v1152q0 52 38 90t90 38h448q20 84 36 128t56 86
t100 42h512q60 0 100 -42t56 -86t36 -128h448zM608 704q0 172 122 294t294 122t294 -122t122 -294t-122 -294t-294 -122t-294 122t-122 294z" />
    <glyph glyph-name="comma" unicode="," 
d="M1792 1664v-128h-1664v-1152h-128v1280h1792zM512 960q0 80 56 136t136 56t136 -56t56 -136t-56 -136t-136 -56t-136 56t-56 136zM1920 1280h-1536v-1024l768 640l220 -368l292 240l256 -428v940zM256 1408h1792v-1280h-1792v1280z" />
    <glyph glyph-name="hyphen" unicode="-" 
d="M1920 0h-1792q0 116 142 238t294 192t240 86q44 4 44 128l-32 36q-36 36 -76 112t-52 152q-36 0 -62 48t-22 110t40 90q0 4 -4 44t-6 72t2 84t16 94t40 90t70 80t108 52t154 20t154 -20t108 -52t70 -80t40 -90t16 -94t2 -84t-6 -72t-4 -44q56 -48 34 -148t-78 -100
q-28 -172 -160 -300v-32q12 -96 44 -96q88 -16 240 -86t294 -192t142 -238z" />
    <glyph glyph-name="period" unicode="." 
d="M0 256q0 100 122 204t252 162t206 70q36 8 36 112l-28 28q-28 32 -62 96t-46 132q-48 0 -68 84t28 128l-2 34q-2 34 -4 60t2 72t14 82q26 93 103 148q77 56 215 56q304 0 332 -280q-317 -110 -280 -520q-54 -120 -8 -232q24 -64 72 -104q28 -92 88 -180
q-193 -62 -312 -152h-660zM2048 -128h-1536q0 100 122 204t252 162t206 70q36 8 36 112l-28 28q-28 32 -62 96t-46 132q-48 0 -68 84t28 128l-2 34q-2 34 -4 60t2 72t14 82t34 76t60 66t92 44t132 18t132 -18t92 -44t60 -66t34 -76t14 -82t2 -72t-4 -60l-2 -34
q48 -44 28 -128t-68 -84q-24 -148 -136 -256v-28q0 -24 10 -52t26 -32q76 -12 206 -70t252 -162t122 -204z" />
    <glyph glyph-name="slash" unicode="/" 
d="M576 768q-240 0 -408 168t-168 408q0 84 24 168l332 -332q40 -40 92 -40t92 40l200 200q40 40 40 92t-40 92l-332 332q84 24 168 24q240 0 408 -168t168 -408q0 -144 -68 -272l920 -788q40 -36 42 -86t-34 -86l-204 -204q-36 -36 -86 -34t-86 42l-788 920
q-128 -68 -272 -68z" />
    <glyph glyph-name="zero" unicode="0" 
d="M32 512l-32 128l32 128h64l32 -128l-32 -128h-64zM288 384l-32 256l32 256h64l32 -256l-32 -256h-64zM608 384h-64l-32 324l32 316h64l32 -320zM800 384l-32 448l32 448h64l32 -448l-32 -448h-64zM1784 892q108 0 186 -74t78 -180t-78 -180t-186 -74h-732q-28 4 -28 32
v804q0 20 24 28q84 32 168 32q184 0 316 -118t148 -290q52 20 104 20z" />
    <glyph glyph-name="one" unicode="1" 
d="M864 384l32 448l-32 448h-64l-32 -448l32 -448h64zM608 384l32 320l-32 320h-64l-32 -316l32 -324h64zM352 384l32 256l-32 256h-64l-32 -256l32 -256h64zM1708 1920q140 0 240 -100t100 -240v-944q0 108 -78 182t-186 74q-52 0 -104 -20q-16 172 -148 290t-316 118
q-84 0 -168 -32q-24 -8 -24 -28v-804q0 -28 28 -32h732q108 0 186 74t78 178v-424q0 -140 -100 -240t-240 -100h-1368q-140 0 -240 100t-100 240v428l32 -128h64l32 128l-32 128h-64l-32 -128v940q0 140 100 240t240 100h1368z" />
    <glyph glyph-name="two" unicode="2" 
d="M770 234q126 -42 346 -32t374 178t78 348q-43 106 -142 177q-110 79 -528 167q-38 8 -66 24q-124 64 -56 164q68 108 224 108q138 -6 320 -170q60 -54 96 -50q52 8 86 50t24 110t-82 128q-212 184 -556 152q-160 -16 -278 -118t-134 -278t142 -282t370 -138
q136 -16 239 -79t17 -181q-56 -64 -152 -74q-149 -16 -272 58q-20 12 -62 60t-88 82t-98 30q-96 -8 -114 -102t82 -194q104 -96 230 -138zM2048 448q0 -232 -164 -396t-396 -164q-160 0 -296 84q-88 -16 -172 -16q-392 0 -666 274t-274 662q0 72 12 148q-92 136 -92 304
q0 232 164 396t396 164q168 0 308 -88q76 12 152 12q388 0 664 -274t276 -662q0 -64 -8 -128q96 -144 96 -316z" />
    <glyph glyph-name="three" unicode="3" 
d="M1664 256v576q0 132 -84 226t-198 94t-230 -160v160h-256v-896h256v512q0 52 38 90t90 38t90 -38t38 -90v-512h256zM640 1280q52 0 90 38t38 90t-38 90t-90 38t-90 -38t-38 -90t38 -90t90 -38zM768 256v896h-256v-896h256zM1704 1920q140 0 242 -102t102 -242v-1360
q0 -140 -102 -242t-242 -102h-1360q-140 0 -242 102t-102 242v1360q0 140 102 242t242 102h1360z" />
    <glyph glyph-name="four" unicode="4" 
d="M1920 212v684h-896v-896h684q88 0 150 62t62 150zM1708 1920q140 0 240 -100t100 -240v-1368q0 -140 -100 -240t-240 -100h-1368q-140 0 -240 100t-100 240v1368q0 140 100 240t240 100h1368zM1024 896v896h-684q-88 0 -150 -62t-62 -150v-684h896z" />
    <glyph glyph-name="five" unicode="5" 
d="M560 1304l108 232l1160 -544l-1016 780l112 148h116l944 -724l-156 -204l-108 -232h-1l-55 -248l-1248 276l52 252l1236 -272zM2048 640v-768h-2048v768h256v-512h1536v512h256zM1664 512v-256h-1280v256h1280z" />
    <glyph glyph-name="six" unicode="6" 
d="M1568 1316l20 228h-1132l64 -684h780l-24 -292l-252 -68l-252 68l-16 180h-228l32 -356l464 -128l464 128l60 692h-824l-20 232h864zM120 1920h1808l-164 -1844l-740 -204l-740 204z" />
    <glyph glyph-name="seven" unicode="7" 
d="M1300 860h-780l-64 684h1132l-20 -228h-864l20 -232h824l-60 -692l-464 -128l-464 128l-32 356h228l16 -180l252 -68l252 68zM1620 196l144 1572h-1476l140 -1572l596 -168h4zM120 1920h1808l-164 -1844l-740 -204l-740 204z" />
    <glyph glyph-name="eight" unicode="8" 
d="M304 1824h1744l-308 -1544l-932 -312l-808 312l80 412h344l-32 -172l488 -184l564 184l80 392h-1400l68 344h1400l44 224h-1400z" />
    <glyph glyph-name="nine" unicode="9" 
d="M188 -16q116 -116 424 24q-268 164 -376 460q-180 -352 -48 -484zM1792 1592q-108 112 -400 -12q256 -104 408 -336q92 248 -8 348zM1066 1244q-146 0 -254 -102t-116 -246h740q-8 144 -116 246t-254 102zM696 664v-4q0 -96 44 -184q52 -92 142 -146t200 -54t200 54
t142 146h476q-92 -260 -320 -426t-512 -166q-212 0 -400 92q-420 -204 -604 -20q-64 60 -64 200t54 312t180 378t298 374q100 104 128 128q-248 -120 -448 -372q72 292 310 480t546 188q32 0 64 -4q224 100 408 112t260 -60q152 -156 28 -488q116 -204 116 -440
q0 -56 -4 -100h-1244z" />
    <glyph glyph-name="colon" unicode=":" 
d="M1024 640q108 0 182 74t74 182t-74 182t-182 74t-182 -74t-74 -182t74 -182t182 -74zM2048 704l-296 -48q-16 -56 -40 -104l172 -244l-272 -272l-244 172q-48 -24 -104 -40l-48 -296h-384l-48 296q-56 16 -104 40l-244 -172l-272 272l172 244q-24 48 -40 104l-296 48v384
l292 48q20 56 44 108l-172 240l272 272l240 -172q52 24 108 44l48 292h384l48 -292q56 -20 108 -44l240 172l272 -272l-172 -240q24 -52 44 -108l292 -48v-384z" />
    <glyph glyph-name="semicolon" unicode=";" 
d="M1024 1792q-296 0 -536 -176q76 -36 28 -72q-28 -76 -110 -144t-158 -56q-88 -148 -112 -320q44 -16 76 -46t20 -66q-68 -56 -92 -164q48 -280 252 -484q260 -264 632 -264t632 264q192 188 248 452q-52 -72 -72 36q-4 64 -46 80t-90 6t-96 18q-48 -32 -112 -6t-110 18
t-30 -96q28 -38 106 -11t88 21t-14 -52t-68 -118q-57 -93 -128 -244t-56 -236q0 -76 -36 -98t-88 2q-104 48 -180 124q-20 48 -32 162t-38 196t-86 114q-205 0 -282 86q-34 38 -58 116t26 184t142 126q64 44 124 28t98 -54q118 -118 210 -118q24 24 116 64t100 76
q-48 8 -20 36t56 54t-48 50q-64 -8 -96 -58t0 -98q-56 -16 -100 18t-70 76t-70 66t-96 -8q0 -80 -88 -72q-64 0 -60 28q0 20 60 28q28 12 -24 64q-24 28 -4 28q4 -4 12 -4q76 4 136 48q28 24 12 36q28 20 72 -4t72 -36t76 44q40 68 0 86t-92 -22q-28 32 28 88t136 92
q52 20 84 20q40 -44 88 -46t56 50q-184 88 -388 88zM2048 896q0 -424 -300 -724t-724 -300t-724 300t-300 724t300 724t724 300t724 -300t300 -724z" />
    <glyph glyph-name="less" unicode="&#x3c;" 
d="M1792 32v1216q0 16 -4 32h-508v508q-16 4 -32 4h-960q-32 0 -32 -32v-1728q0 -32 32 -32h1472q32 0 32 32zM1408 1408h328q-12 12 -20 24l-284 284q-12 8 -24 20v-328zM1920 1248v-1216q0 -64 -48 -112t-112 -48h-1472q-64 0 -112 48t-48 112v1728q0 64 48 112t112 48
h960q64 0 146 -34t126 -78l288 -288q44 -44 78 -124t34 -148zM1152 256l256 256l-256 256l128 128l384 -384l-384 -384zM896 768l-256 -256l256 -256l-128 -128l-384 384l384 384z" />
    <glyph glyph-name="equal" unicode="=" 
d="M1792 32v1216q0 16 -4 32h-508v508q-16 4 -32 4h-960q-32 0 -32 -32v-1728q0 -32 32 -32h1472q32 0 32 32zM1408 1408h328q-12 12 -20 24l-284 284q-12 8 -24 20v-328zM1920 1248v-1216q0 -64 -48 -112t-112 -48h-1472q-64 0 -112 48t-48 112v1728q0 64 48 112t112 48
h960q64 0 146 -34t126 -78l288 -288q44 -44 78 -124t34 -148zM1280 584q0 24 18 40l46 16l-46 16q-18 16 -18 40v228q0 48 -38 82t-90 34v116q104 0 180 -68t76 -164v-168q0 -24 18 -42t46 -18h64v-112h-64q-28 0 -46 -18t-18 -42v-168q0 -96 -76 -164t-180 -68v116
q52 0 90 34t38 82v228zM768 696q0 -24 -18 -40l-46 -16l46 -16q18 -16 18 -40v-228q0 -48 38 -82t90 -34v-116q-104 0 -180 68t-76 164v168q0 24 -18 42t-46 18h-64v112h64q28 0 46 18t18 42v168q0 96 76 164t180 68v-116q-52 0 -90 -34t-38 -82v-228z" />
    <glyph glyph-name="greater" unicode="&#x3e;" 
d="M1792 32v1216q0 16 -4 32h-508v508q-16 4 -32 4h-960q-32 0 -32 -32v-1728q0 -32 32 -32h1472q32 0 32 32zM1408 1408h328q-12 12 -20 24l-284 284q-12 8 -24 20v-328zM1920 1248v-1216q0 -64 -48 -112t-112 -48h-1472q-64 0 -112 48t-48 112v1728q0 64 48 112t112 48
h960q64 0 146 -34t126 -78l288 -288q44 -44 78 -124t34 -148zM1044 312v-184h-524l368 540l-328 484h272l192 -284l192 284h272l-328 -484l368 -540h-280l-224 332l-100 -148h120z" />
    <glyph glyph-name="question" unicode="?" 
d="M1792 32v1216q0 16 -4 32h-508v508q-16 4 -32 4h-960q-32 0 -32 -32v-1728q0 -32 32 -32h1472q32 0 32 32zM1408 1408h328q-12 12 -20 24l-284 284q-12 8 -24 20v-328zM1920 1248v-1216q0 -64 -48 -112t-112 -48h-1472q-64 0 -112 48t-48 112v1728q0 64 48 112t112 48
h960q64 0 146 -34t126 -78l288 -288q44 -44 78 -124t34 -148zM1516 708q-52 0 -100 -4q136 -60 182 -60t54 6t10 14t-10 16t-48 18t-88 10zM796 644q156 60 360 100q-117 88 -196 232q-67 -170 -164 -332zM956 1520q-4 0 -8 -24t-4 -48v-24q0 -104 24 -180q36 64 32 144
q0 132 -44 132zM424 292q76 36 200 228q-28 -24 -36 -28q-132 -112 -164 -200zM1604 572q-156 0 -356 112q-244 -36 -488 -116q-196 -340 -320 -340q-24 0 -44 12l-32 16q-32 16 -20 60q20 100 208 212q16 8 76 44l36 16q154 272 236 464l12 32q-84 312 -52 428q16 52 84 52
h20q48 0 72 -56q8 -16 8 -32q8 -36 -2 -126t-18 -132t-10 -62t-6 -36q60 -172 180 -284q32 -28 100 -68q120 16 238 14q160 -3 178 -74q14 -111 -60 -132q-16 -4 -40 -4z" />
    <glyph glyph-name="at" unicode="@" 
d="M948 656q32 -16 80 -16t98 30t74 86t16 94t-16 58l-108 -144zM1036 1024q-115 0 -171 -86t-17 -182l108 144l144 108q-32 16 -64 16zM1520 1328l-296 -392v-4l240 -8l-216 -100q0 -44 -20 -88l92 -96l-128 44q-28 -32 -68 -52l-8 -240l-100 216q-52 4 -96 24l-392 -296
l296 392v4l-240 8l216 100q0 44 20 88l-92 96l128 -44q28 32 68 52l8 240l100 -216q52 -4 96 -24zM1752 832q0 48 -8 96l-160 24l140 84q-52 180 -184 312q-216 212 -516 212q-48 0 -96 -8l-24 -160l-84 140q-180 -52 -312 -184q-212 -216 -212 -516q0 -48 8 -96l160 -24
l-140 -84q52 -180 184 -312q216 -212 516 -212q48 0 96 8l24 160l84 -140q180 52 312 184q212 216 212 516zM824 1888q-52 0 -76 -24t-20 -40q8 -24 40 -32q16 24 42 30t50 -10q28 20 24 44q-8 32 -60 32zM1024 1792q396 0 678 -282t282 -678t-282 -678t-678 -282t-678 282
t-282 678q0 324 196 580t500 344v4q-52 12 -60 56q-8 32 23 68t104 36t85 -60q12 -40 -32 -72q0 -4 4 -8q68 12 140 12z" />
    <glyph glyph-name="A" unicode="A" 
d="M1726 512q134 0 228 -94t94 -226t-94 -226t-226 -94t-226 94t-94 226q0 24 4 52l-860 428q-96 -96 -230 -96t-228 94t-94 226t94 226t228 94t230 -96l860 428q-4 28 -4 52q0 132 94 226t226 94t226 -94t94 -226t-94 -226t-228 -94t-230 96l-860 -428q4 -28 4 -52t-4 -52
l860 -428q96 96 230 96z" />
    <glyph glyph-name="B" unicode="B" 
d="M1664 512v776l-376 -436l372 -372q4 16 4 32zM1536 384q16 0 32 4l-364 364l-180 -212l-180 212l-364 -364q16 -4 32 -4h1024zM384 512q0 -16 4 -32l372 372l-376 436v-776zM512 1408q-28 0 -52 -12l564 -656l564 656q-24 12 -52 12h-1024zM1024 1920q424 0 724 -300
t300 -724t-300 -724t-724 -300t-724 300t-300 724t300 724t724 300z" />
    <glyph glyph-name="C" unicode="C" 
d="M920 -60q0 -36 -4 -68h-576q-120 0 -214 78t-118 194q72 84 190 132t230 46t196 -30q67 -40 101 -66q35 -26 65 -48t44 -38t36 -41t42 -83q8 -40 8 -76zM372 388q-200 0 -372 -80v536q148 -128 368 -128q40 0 68 4q-36 -72 -36 -132q0 -104 96 -200h-124zM2048 1408h-384
v384h-128v-384h-384v-128h384v-384h128v384h384v-1068q0 -140 -100 -240t-240 -100h-616q12 48 12 96q0 160 -56 264t-196 200q-60 44 -124 112t-64 118t26 90t114 108q200 156 200 372q0 140 -60 254t-168 154h224l160 136h-716q-228 0 -444 -188q4 136 104 234t236 98
h1368q140 0 240 -100t100 -240v-172zM470 788q-138 4 -252 136t-138 312t58 302t220 118t252 -132t138 -308t-58 -306t-220 -122z" />
    <glyph glyph-name="D" unicode="D" 
d="M440 636q-212 0 -364 -128q-76 184 -76 370t52 342q12 -152 116 -252t272 -100q20 0 48 4q-28 -52 -28 -108t76 -128h-96zM632 1476q80 -96 98 -234t-36 -218t-158 -78t-190 90t-102 224t44 228t162 88t182 -100zM1536 1152h256v128h-256v256h-128v-256h-256v-128h256
v-256h128v256zM1014 1920q434 0 734 -300t300 -724t-300 -724t-724 -300q-188 0 -364 68q172 36 272 140t100 224t-38 194t-158 166q-152 112 -152 156t20 74t84 82q148 116 148 272q0 208 -144 292h136l112 120h-512q-136 0 -252 -68q304 328 738 328zM876 284
q0 -264 -356 -280q-236 136 -376 368q36 88 138 146t226 58q72 0 136 -24q16 -8 52 -34t50 -36q61 -44 84 -74q46 -61 46 -124z" />
    <glyph glyph-name="E" unicode="E" 
d="M1152 -128h-384v1024h-256v352h256v208q0 236 88 350t328 114h284v-352h-176q-92 0 -116 -32t-24 -112v-176h316l-36 -352h-280v-1024z" />
    <glyph glyph-name="F" unicode="F" 
d="M1408 1188v160q0 68 18 98t78 30h288v316h-352q-220 0 -318 -104t-98 -308v-192h-184v-292h184v-896h384v896h332l52 292h-384zM1708 1920q140 0 240 -100t100 -240v-1368q0 -140 -100 -240t-240 -100h-1368q-140 0 -240 100t-100 240v1368q0 140 100 240t240 100h1368z
" />
    <glyph glyph-name="G" unicode="G" 
d="M1024 1920q424 0 724 -300t300 -724q0 -388 -258 -678t-638 -338v760h352l32 256h-384v128q0 52 38 90t90 38h256v256h-256q-160 0 -272 -112t-112 -272v-128h-192v-256h192v-760q-380 48 -638 338t-258 678q0 424 300 724t724 300z" />
    <glyph glyph-name="H" unicode="H" 
d="M1792 1472v128q0 28 -18 46t-46 18h-128q-28 0 -46 -18t-18 -46v-128q0 -28 18 -46t46 -18h128q28 0 46 18t18 46zM1792 1024h-200q16 -64 16 -128q0 -240 -172 -412t-412 -172t-412 172t-172 412q0 64 16 128h-200v-768q0 -52 38 -90t90 -38h1280q52 0 90 38t38 90v768z
M632 896q0 -160 116 -276t276 -116t276 116t116 276q0 68 -24 128h-736q-24 -60 -24 -128zM1708 1920q140 0 240 -100t100 -240v-1368q0 -140 -100 -240t-240 -100h-1368q-140 0 -240 100t-100 240v1368q0 140 100 240t240 100h1368z" />
    <glyph glyph-name="I" unicode="I" 
d="M1840 1260q0 -212 -80 -422t-226 -384t-378 -282t-512 -108q-348 0 -644 188q48 -4 100 -4q292 0 524 180q-140 0 -246 82t-150 210q40 -8 88 -8t104 12q-148 32 -242 148t-94 264v8q88 -52 188 -52q-188 124 -188 348q0 112 60 212q156 -196 382 -312t482 -128
q-12 48 -12 96q0 176 124 298t302 122t302 -132q144 28 268 100q-48 -148 -184 -232q124 16 240 68q-84 -128 -208 -220v-52z" />
    <glyph glyph-name="J" unicode="J" 
d="M1342 1576q-142 0 -240 -102t-98 -242q0 -40 8 -80q-208 12 -388 106t-304 254q-48 -80 -48 -172q0 -184 152 -284q-84 0 -156 40v-4q0 -124 78 -218t194 -118q-44 -12 -82 -12t-70 8q32 -104 118 -170t198 -70q-184 -144 -420 -144q-40 0 -80 4q236 -156 516 -156
q224 0 410 88t302 230t180 314t64 344v44q100 72 168 176q-92 -40 -192 -52q108 68 148 188q-100 -60 -216 -84q-100 112 -242 112zM1708 1920q140 0 240 -100t100 -240v-1368q0 -140 -100 -240t-240 -100h-1368q-140 0 -240 100t-100 240v1368q0 140 100 240t240 100h1368z
" />
    <glyph glyph-name="K" unicode="K" 
d="M1312 1496q-128 0 -218 -88t-90 -216q0 -32 8 -68q-384 20 -624 316q-44 -68 -44 -152q0 -160 136 -252q-72 4 -136 40v-4q0 -112 68 -196t176 -104q-40 -8 -74 -8t-66 4q32 -92 110 -150t174 -62q-164 -128 -376 -128q-36 0 -72 4q212 -136 464 -136q204 0 372 78
t272 204q220 267 220 582v36q92 68 152 160q-84 -36 -176 -48q100 60 136 168q-92 -56 -192 -76q-92 96 -220 96zM1024 1920q424 0 724 -300t300 -724t-300 -724t-724 -300t-724 300t-300 724t300 724t724 300z" />
    <glyph glyph-name="L" unicode="L" 
d="M0 1920q416 0 796 -162t654 -436t436 -654t162 -796h-392q0 448 -222 830t-604 604t-830 222v392zM0 1224q368 0 678 -182t492 -492t182 -678h-396q0 400 -280 680t-676 280v392zM272 420q112 0 192 -80t80 -194t-80 -192t-192 -78t-192 78t-80 192t80 194t192 80z" />
    <glyph glyph-name="M" unicode="M" 
d="M1440 256h252q0 356 -176 656t-476 476t-656 176v-252q436 0 746 -310t310 -746zM996 256h252q0 356 -254 610t-610 254v-252q252 0 432 -178t180 -434zM558 256q74 0 124 52t50 124t-50 122t-122 50t-124 -50t-52 -122t50 -124t124 -52zM1708 1920q140 0 240 -100
t100 -240v-1368q0 -140 -100 -240t-240 -100h-1368q-140 0 -240 100t-100 240v1368q0 140 100 240t240 100h1368z" />
    <glyph glyph-name="N" unicode="N" 
d="M1376 384h192q0 436 -310 746t-746 310v-192q356 0 610 -254t254 -610zM992 384h192q0 276 -198 474t-474 198v-192q200 0 340 -140t140 -340zM640 384q52 0 90 38t38 90t-38 90t-90 38t-90 -38t-38 -90t38 -90t90 -38zM1024 1920q424 0 724 -300t300 -724t-300 -724
t-724 -300t-724 300t-300 724t300 724t724 300z" />
    <glyph glyph-name="O" unicode="O" 
d="M1600 1024q132 0 226 94t94 226t-94 226t-226 94t-226 -94t-94 -226t94 -226t226 -94zM768 116q112 0 190 78t78 190t-78 190t-190 78q-28 0 -56 -4l128 -100q56 -44 64 -112t-40 -128t-116 -60t-116 36l-132 104v-4q0 -112 78 -190t190 -78zM2048 1344q0 -184 -132 -316
q-104 -108 -252 -128l-500 -444q40 -208 -112 -356q-116 -120 -284 -120t-284 120q-80 76 -106 178t-2 206l-312 244q-56 44 -64 112t36 124t112 64t124 -36l316 -248q76 40 160 44l408 620q20 148 128 252q132 132 316 132t316 -132t132 -316zM1408 1344q0 80 56 136
t136 56t136 -56t56 -136t-56 -136t-136 -56t-136 56t-56 136z" />
    <glyph glyph-name="P" unicode="P" 
d="M1280 1344q0 -80 56 -136t136 -56t136 56t56 136t-56 136t-136 56t-136 -56t-56 -136zM1792 1344q0 -132 -94 -226t-226 -94t-226 94t-94 226t94 226t226 94t226 -94t94 -226zM1708 1920q140 0 240 -100t100 -240v-1368q0 -140 -100 -240t-240 -100h-1368
q-140 0 -240 100t-100 240v408l244 -164q-40 -208 112 -356q116 -120 284 -120t284 120q152 148 112 356l500 444q148 20 252 128q132 132 132 316t-132 316t-316 132t-316 -132q-108 -104 -128 -252l-408 -620q-100 -4 -184 -56l-436 292v556q0 140 100 240t240 100h1368z
M608 248q88 0 140 76q40 56 26 124t-74 108l-132 88q36 8 72 8q112 0 190 -78t78 -190t-78 -190t-188 -78t-188 74t-82 182l144 -96q40 -28 92 -28z" />
    <glyph glyph-name="Q" unicode="Q" 
d="M512 576q0 80 38 136t90 56t90 -56t38 -136t-38 -136t-90 -56t-90 56t-38 136zM1280 576q0 80 38 136t90 56t90 -56t38 -136t-38 -136t-90 -56t-90 56t-38 136zM252 556q0 -250 168 -340q60 -32 116 -50t146 -26t160 -10t176 -2t176 2t158 10t146 26q146 45 216 136
t70 246q0 156 -132 272q-102 92 -334 76t-299 -16t-155 6q-207 14 -274 10q-138 -8 -206 -76q-132 -120 -132 -264zM345 1642q84 -22 279 -146q144 40 400 40t400 -40q197 125 296 150q100 25 128 18l16 -4q65 -155 49 -273q-16 -117 -33 -151q168 -180 168 -428
q0 -408 -216 -594q-198 -171 -566 -204q-110 -10 -244 -10t-246 10t-218 36t-188 66q-370 180 -370 685q0 259 168 439q-17 34 -29 117q-21 151 45 307q4 4 41 4q36 0 120 -22z" />
    <glyph glyph-name="R" unicode="R" 
d="M1280 704q0 80 38 136t90 56t90 -56t38 -136t-38 -136t-90 -56t-90 56t-38 136zM512 704q0 80 38 136t90 56t90 -56t38 -136t-38 -136t-90 -56t-90 56t-38 136zM1024 128q104 0 172 2t156 14t142 32q150 56 206 150q72 122 72 306t-128 324q-68 84 -204 92q-81 5 -218 -7
q-138 -13 -200 -13t-148 8q-186 17 -270 12q-128 -8 -204 -92q-128 -140 -128 -321t76 -309q109 -184 504 -196q68 -2 172 -2zM1026 1668q202 0 398 -60q166 126 279 159t145 25l16 -4q61 -159 48 -289t-32 -167q168 -196 168 -464q0 -440 -211 -633t-569 -225
q-112 -10 -246 -10t-244 10t-218 38t-192 72q-368 193 -368 739q0 281 168 473q-24 48 -32 130q-16 159 48 326q4 0 16 2q47 8 147 -23q100 -30 277 -159q200 60 402 60zM1024 256q-56 0 -116 60q-28 28 0 56t60 -4t56 -32t56 32t60 4t0 -56q-60 -60 -116 -60z" />
    <glyph glyph-name="S" unicode="S" 
d="M1884 896q0 176 -66 332t-186 276t-276 186t-332 66t-332 -66t-276 -186t-186 -276t-66 -332t66 -332t186 -276t272 -184q44 -20 92 -32v156q0 124 80 180q-308 24 -408 224q-52 104 -52 260t100 264q-44 120 12 260q4 4 10 4q39 0 91 -14t171 -90q116 36 244 36t248 -36
q84 56 152 82t92 22l24 -4q56 -140 12 -260q100 -108 100 -264q0 -228 -113 -347t-347 -137q84 -60 84 -180v-152q200 60 336 196t202 292t66 332zM1024 1920q424 0 724 -300t300 -724t-300 -724t-724 -300t-724 300t-300 724t300 724t724 300z" />
    <glyph glyph-name="T" unicode="T" 
d="M1844 632q64 0 124 36v-224q-76 -44 -196 -44q-160 0 -224 116q-48 88 -48 276v408h-36q-28 0 -76 -4v212h112v92q0 72 -4 92h260q-8 -44 -8 -88v-96h192v-212h-192v-416q0 -148 96 -148zM1276 1272v-688q0 -48 12 -168h-256q4 20 2 34t-2 52v824q0 34 2 48t-2 34h256
q-12 -104 -12 -136zM1160 1920q64 0 110 -50t46 -118t-46 -116t-110 -48t-110 48t-46 116t46 118t110 50zM480 1216q-140 0 -140 -160t138 -160t138 156q0 64 -34 114t-102 50zM684 192q0 112 -186 112t-186 -118t200 -118q172 0 172 124zM472 1424q104 0 200 -56
q108 0 244 56v-232q-32 -12 -84 -24q20 -60 20 -96q0 -144 -86 -250t-222 -126q-92 -16 -92 -100q0 -28 28 -56q40 -44 112 -56q320 -48 320 -264q0 -348 -412 -348q-172 0 -280 60q-140 76 -140 240q0 192 204 256v8q-72 44 -72 140q0 128 72 160v4q-68 20 -128 112
t-60 200q0 164 112 268t264 104z" />
    <glyph glyph-name="U" unicode="U" 
d="M644 1120q44 0 72 -36q20 -32 20 -80q0 -108 -92 -108q-100 0 -100 112t100 112zM1664 1256h-136v64q0 36 4 68h-180q4 -28 4 -72v-60h-76v-152q32 4 52 4h24v-284q0 -132 32 -192q44 -80 156 -80q80 0 140 32v156q-40 -28 -88 -28q-68 0 -68 104v292h68l68 -4v152z
M1224 1492q0 48 -32 82t-76 34t-76 -34t-32 -82t32 -82t76 -34t76 34t32 82zM1200 676v480q0 68 4 100h-176q4 -28 4 -104v-484q0 -76 -4 -104h176q-4 32 -4 112zM622 1264q-90 0 -170 -72q-76 -76 -76 -188q0 -72 40 -140q40 -60 92 -76v-4q-52 -24 -52 -100t52 -108v-4
q-144 -48 -144 -172q0 -216 290 -216t290 240q0 152 -220 188q-52 8 -76 32t-24 44q0 60 64 68q92 12 152 86t60 174q0 32 -12 68q40 12 64 20v160q-100 -40 -172 -40q-68 40 -158 40zM1708 1920q140 0 240 -100t100 -240v-1368q0 -140 -100 -240t-240 -100h-1368
q-140 0 -240 100t-100 240v1368q0 140 100 240t240 100h1368zM528 402q0 82 128 82t128 -82t-128 -82t-128 82z" />
    <glyph glyph-name="V" unicode="V" 
d="M828 816v-12q60 -12 124 -40v12q0 76 38 132t88 56t84 -56t34 -128t-28 -120q60 -20 108 -44q16 -4 28 -12q64 100 62 236t-84 234t-192 96t-186 -106t-76 -248zM730 700q-122 0 -250 -128q-12 -8 -16 -14t-52 -40t-100 -74q-36 -28 -32 -64q4 -84 140 -164
q40 -20 88 -64t68 -60q55 -44 140 -52h20q104 0 248 92q80 52 144 72t132 76t72 120q0 68 -100 108q-48 24 -124 50t-120 54q-136 88 -258 88zM320 596l64 48q-24 44 -32 104q-4 72 18 124t62 58t72 -40t40 -118v-4q44 24 92 36v24q-8 124 -70 208t-142 80t-132 -94
t-44 -216t72 -210zM736 -76q-79 0 -139 26q-61 26 -87 46t-72 62t-74 58t-52 32q-12 -124 -52 -276h-260q136 364 156 620q0 60 -12 256t-6 322t24 232t68 216t128 190t210 136t318 72t342 -26t250 -126t160 -200t92 -250t44 -272t10 -268t-4 -242q0 -120 46 -248t86 -198
t136 -214h-552q-76 204 -116 364q-73 -97 -236 -148q-32 -12 -100 -56q-168 -108 -308 -108zM780 260q-36 0 -72 4q-208 12 -320 88q-48 32 -16 82t80 14q88 -56 264 -68q236 -20 420 68q52 24 76 -30t-28 -78q-176 -80 -404 -80z" />
    <glyph glyph-name="W" unicode="W" 
d="M1324 1592q-56 -68 -138 -110t-166 -34q-20 164 112 316q52 64 138 108t162 48q20 -176 -108 -328zM1062 -44q-82 0 -178 -40t-156 -44t-124 40t-104 92t-114 156t-134 282t-60 374t84 348q68 116 180 184t244 72q72 0 188 -44t146 -44t166 50t228 42q244 -8 376 -204
q-224 -144 -220 -388q0 -84 28 -158t64 -116q78 -91 180 -142q-68 -214 -230 -414q-34 -42 -96 -84t-128 -44t-162 40t-178 42z" />
    <glyph glyph-name="X" unicode="X" 
d="M1216 1380q40 0 66 26t26 66t-26 66t-66 26t-66 -26t-26 -66t26 -66t66 -26zM704 1380q40 0 66 26t26 66t-26 66t-66 26t-66 -26t-26 -66t26 -66t66 -26zM960 1792q108 0 208 -40l80 160q8 12 22 6t10 -22l-84 -156q140 -60 230 -184t106 -276h-1144q16 152 106 276
t230 184l-84 156q-4 16 10 22t22 -6l80 -160q100 40 208 40zM384 448v704h1152v-704q0 -80 -56 -136t-136 -56h-64v-256q0 -52 -38 -90t-90 -38t-90 38t-38 90v256h-128v-256q0 -52 -38 -90t-90 -38t-90 38t-38 90v256h-64q-80 0 -136 56t-56 136zM192 1280q52 0 90 -38
t38 -90v-512q0 -52 -38 -90t-90 -38t-90 38t-38 90v512q0 52 38 90t90 38zM1728 1280q52 0 90 -38t38 -90v-512q0 -52 -38 -90t-90 -38t-90 38t-38 90v512q0 52 38 90t90 38z" />
    <glyph glyph-name="Y" unicode="Y" 
d="M1494 824q-190 0 -378 120l184 636q180 -124 404 -124q168 0 344 68l-176 -612l-8 -4v-4q-180 -80 -370 -80zM584 1184q-152 0 -344 -76l180 624q188 76 344 80q80 0 158 -20t210 -96l-184 -636q-184 120 -364 124zM1468 616q156 0 336 56l-176 -604q-212 -88 -370 -88
t-382 128l180 628q172 -120 412 -120zM350 332q-166 0 -350 -68l180 624q24 8 52 20q144 48 280 60q16 4 36 4q159 0 348 -120q-124 -424 -188 -644q-192 124 -358 124z" />
    <glyph glyph-name="Z" unicode="Z" 
d="M0 768h768v-736l-768 104v632zM1920 768v-896l-1024 144v752h1024zM1920 896h-1024v748l1024 148v-896zM0 896v624l768 104v-728h-768z" />
    <glyph glyph-name="bracketleft" unicode="[" 
d="M1408 1408h328q-12 12 -20 24l-284 284q-12 8 -24 20v-328zM1920 1248v-1216q0 -64 -48 -112t-112 -48h-1472q-64 0 -112 48t-48 112v1728q0 64 48 112t112 48h960q64 0 146 -34t126 -78l288 -288q44 -44 78 -124t34 -148zM1598 644q-46 0 -182 60q48 4 100 4t88 -10
t48 -18t10 -16t-10 -14t-54 -6zM796 644q97 162 164 332q79 -144 196 -232q-204 -40 -360 -100zM956 1520q44 0 44 -132q4 -80 -32 -144q-24 76 -24 180v24q0 24 4 48t8 24zM424 292q32 88 164 200q8 4 36 28q-124 -192 -200 -228zM964 1564h-20q-68 0 -84 -52
q-32 -116 52 -428l-12 -32q-24 -56 -104 -214t-132 -250l-36 -16q-60 -36 -76 -44q-188 -112 -208 -212q-12 -44 20 -60l32 -16q20 -12 44 -12q124 0 320 340q244 80 488 116q200 -112 356 -112q58 0 84 32q24 40 16 104q-18 71 -200 76q-96 0 -216 -16q-68 40 -100 68
q-120 112 -180 284q4 16 6 36t10 62t18 132t2 126q0 16 -8 32q-24 56 -72 56z" />
    <glyph glyph-name="a" unicode="a" 
d="M1792 0h-512v512h-512v-512h-512v768l768 576l768 -576v-768zM2048 740l-1024 792l-1024 -792v324l1024 796l1024 -796v-324z" />
    <glyph glyph-name="b" unicode="b" 
d="M1844 616l204 -104l-1024 -512l-1024 512l204 104l820 -412zM1844 1000l204 -104l-1024 -512l-1024 512l204 104l820 -412zM1024 1624l-684 -344l684 -344l684 344zM2048 1280l-1024 -512l-1024 512l1024 512z" />
    <glyph glyph-name="c" unicode="c" 
d="M512 256h1152v-128h-1152v128zM1792 1664h128v-1792h-1536q-104 0 -180 76t-76 180v1536q0 104 76 180t180 76h1280v-1536h-1216q-80 0 -136 -56t-56 -136t56 -136t136 -56h1344v1664z" />
    <glyph glyph-name="d" unicode="d" 
d="M1792 256h-1536l384 1024l512 -640l256 192zM1408 1216q0 80 56 136t136 56t136 -56t56 -136t-56 -136t-136 -56t-136 56t-56 136zM1920 128v1408h-1792v-1408h1792zM0 1664h2048v-1664h-2048v1664z" />
    <glyph glyph-name="e" unicode="e" 
d="M2048 896q0 -180 -60 -348q60 -108 60 -234t-70 -236t-186 -162v808q60 -28 108 -72q20 88 20 180q0 372 -262 634t-634 262t-634 -262t-262 -634q0 -92 20 -180q48 44 108 72v-808q-116 52 -186 162t-70 236t60 234q-60 168 -60 348q0 424 300 724t724 300t724 -300
t300 -724zM1536 768h64q32 0 64 -4v-888q-32 -4 -64 -4h-64v896zM448 768h64v-896h-64q-32 0 -64 4v888q32 4 64 4z" />
    <glyph glyph-name="f" unicode="f" 
d="M1252 820l540 -424v1004zM820 796l-424 -540h1256l-424 540l-204 -220zM352 1408l672 -504l672 504h-1344zM796 820l-540 580v-1004zM1856 1664q80 0 136 -56t56 -136v-1280q0 -80 -56 -136t-136 -56h-1664q-80 0 -136 56t-56 136v1280q0 80 56 136t136 56h1664z" />
    <glyph glyph-name="g" unicode="g" 
d="M1920 256q0 -56 -106 -160t-170 -150t-108 -74q-192 0 -514 162t-510 350t-350 510t-162 514l68 96q68 96 164 192t152 96q108 0 290 -212t94 -300q-48 -48 -118 -90t-104 -76t-34 -92t42 -130t86 -120t128 -132t132 -128t120 -86t130 -42t92 34t76 104t90 118
q88 88 300 -94t212 -290z" />
    <glyph glyph-name="h" unicode="h" horiz-adv-x="2304" 
d="M1992 180q0 -84 50 -154t134 -110v-44q-180 4 -316 48t-260 164q-64 -8 -128 -8q-284 0 -508 140q448 0 772 260q156 128 246 300t90 368q0 28 -4 60q236 -192 236 -460q0 -156 -82 -292t-226 -228q-4 -24 -4 -44zM960 1920q396 0 678 -228t282 -550t-282 -548t-678 -226
q-76 0 -148 8q-144 -140 -308 -192t-376 -56v52q100 48 166 130t66 174q0 28 -4 56q-168 108 -262 266t-94 338q0 320 282 548t678 228z" />
    <glyph glyph-name="i" unicode="i" 
d="M1836 1072q44 44 0 92l-544 544q-48 44 -92 0l-92 -92q-44 -44 0 -92l544 -544q48 -44 92 0zM300 212l624 620l-92 92l-620 -624zM1152 512h-256v-256h-256v-256h-256v-128h-384l64 448l712 712q-8 16 -12 28l-144 284q-24 44 -8 98t60 86l552 368q44 28 102 22t94 -42
l200 -200q28 -28 94 -96t90 -88l200 -200q36 -36 42 -94t-22 -102l-368 -552q-32 -44 -86 -60t-98 8l-284 144q-16 8 -36 20v-144z" />
    <glyph glyph-name="j" unicode="j" 
d="M1344 936q116 0 198 82t82 198t-82 198t-198 82t-198 -82t-82 -198t82 -198t198 -82zM2048 1152l-136 -24l-8 -48l116 -76l-52 -116l-132 28q-12 -20 -28 -40l80 -112l-92 -92l-112 80q-20 -16 -40 -28l28 -132l-116 -52l-76 116l-48 -8l-24 -136h-128l-24 136l-48 8
l-76 -116l-116 52l28 132q-20 12 -40 28l-112 -80l-92 92l80 112q-16 20 -28 40l-132 -28l-52 116l116 76l-8 48l-136 24v128l136 24l8 48l-116 76l52 116l132 -28q12 20 28 40l-80 112l92 92l112 -80q20 16 40 28l-28 132l116 52l76 -116l48 8l24 136h128l24 -136l48 -8
l76 116l116 -52l-28 -132q20 -12 40 -28l112 80l92 -92l-80 -112q16 -20 28 -40l132 28l52 -116l-116 -76l8 -48l136 -24v-128zM448 192q52 0 90 38t38 90t-38 90t-90 38t-90 -38t-38 -90t38 -90t90 -38zM728 476q16 -32 28 -68l140 -24v-128l-140 -24q-12 -36 -28 -68
l84 -116l-92 -92l-116 84q-32 -16 -68 -28l-24 -140h-128l-24 140q-36 12 -68 28l-116 -84l-92 92l84 116q-16 32 -28 68l-140 24v128l140 24q12 36 28 68l-84 116l92 92l116 -84q32 16 68 28l24 140h128l24 -140q36 -12 68 -28l116 84l92 -92z" />
    <glyph glyph-name="k" unicode="k" 
d="M1024 480q172 0 294 122t122 294t-122 294t-294 122t-294 -122t-122 -294t122 -294t294 -122zM1224 -128h-404q0 160 -114 274t-274 114q-104 0 -196 -52l-200 348q140 84 182 240t-38 296q-52 88 -144 140l200 348q140 -80 298 -38t238 182q52 92 52 196h400
q0 -164 114 -278t278 -114q104 0 196 52l200 -348q-140 -80 -182 -236t38 -296q52 -92 144 -144l-204 -348q-140 80 -296 38t-236 -178q-52 -92 -52 -196z" />
    <glyph glyph-name="l" unicode="l" 
d="M336 -128q-56 0 -94 30t-42 50t-4 36q89 20 245 106q155 86 275 180t270 264t266 374q-92 -260 -238 -476t-280 -330t-238 -174t-160 -60zM1436 1920q536 -800 384 -1400q-48 -200 -160 -346t-242 -208t-272 -36t-246 150q168 160 270 344t132 318t28 268t-12 178t-18 68
q-156 -348 -366 -592t-430 -356q-148 76 -224 224t-40 342t207 370t417 246q92 26 186 62q209 80 386 368z" />
    <glyph glyph-name="m" unicode="m" 
d="M896 1920h256v-1024h-256v1024zM1920 768q0 -372 -262 -634t-634 -262t-634 262t-262 634q0 300 180 538t460 322v-272q-112 -48 -196 -136q-188 -188 -188 -452t188 -452t452 -188t452 188t188 452t-188 452q-84 88 -196 136v272q280 -84 460 -322t180 -538z" />
    <glyph glyph-name="n" unicode="n" 
d="M768 1920h1024l-768 -768h1024l-1792 -1280l512 1024h-768z" />
    <glyph glyph-name="o" unicode="o" 
d="M644 -128q-320 180 -428 364t-56 428q20 104 126 318t114 342q72 -132 84 -340q448 548 388 936l44 -16q88 -32 256 -200q76 -76 152 -218t120 -318q68 60 74 178t-34 190q86 -51 230 -266q279 -415 176 -812q-38 -146 -174 -302t-360 -284q152 304 58 658t-366 546
q20 -104 -20 -278t-148 -294q21 67 3 159q-17 92 -34 114q-17 23 -21 31l-12 -48q-8 -48 -44 -130t-94 -164t-86 -156t-22 -188t74 -250z" />
    <glyph glyph-name="p" unicode="p" 
d="M1412 792q0 -200 -140 -344l-440 -436q-140 -140 -342 -140t-346 146t-144 346t140 340l308 308q-4 -140 48 -264l-196 -200q-80 -76 -80 -184t80 -184l8 -8q76 -80 184 -80t184 80l436 436q76 76 76 184t-84 192q-20 24 -52 40l160 160q200 -143 200 -392zM2048 1428
q0 -200 -140 -340l-308 -308q4 140 -48 264l196 200q80 76 80 184t-80 184l-8 8q-76 80 -184 80t-184 -80l-436 -436q-76 -76 -76 -184t84 -192q20 -24 52 -40l-160 -160q-200 143 -200 392q0 200 140 344l440 436q140 140 342 140t346 -146t144 -346z" />
    <glyph glyph-name="q" unicode="q" 
d="M1536 1920v-128h-1152v-1536l-128 -128v1792h1280zM512 1664h1280v-1792l-640 640l-640 -640v1792z" />
    <glyph glyph-name="r" unicode="r" 
d="M1536 1408h-180l-332 -332l-332 332h-180v-180l332 -332l-332 -332v-180h180l332 332l332 -332h180v180l-332 332l332 332v180zM1024 1920q424 0 724 -300t300 -724t-300 -724t-724 -300t-724 300t-300 724t300 724t724 300z" />
    <glyph glyph-name="s" unicode="s" 
d="M832 256l832 960l-92 92l-740 -604l-236 300l-188 -196zM1024 1920q424 0 724 -300t300 -724t-300 -724t-724 -300t-724 300t-300 724t300 724t724 300z" />
    <glyph glyph-name="t" unicode="t" 
d="M1152 768v768h-256v-768h256zM1152 256v256h-256v-256h256zM1472 1920l576 -576v-896l-576 -576h-896l-576 576v896l576 576h896z" />
    <glyph glyph-name="u" unicode="u" 
d="M2028 276q12 -12 16 -24q16 -40 -16 -68l-292 -292q-28 -32 -68 -16q-12 4 -24 16l-620 620l-620 -620q-12 -12 -24 -16q-40 -16 -68 16l-292 292q-32 28 -16 68q4 12 16 24l620 620l-620 620q-12 12 -16 24q-16 40 16 68l292 292q28 32 68 16q12 -4 24 -16l620 -620
l620 620q12 12 24 16q40 16 68 -16l292 -292q32 -28 16 -68q-4 -12 -16 -24l-620 -620z" />
    <glyph glyph-name="v" unicode="v" 
d="M1728 1664l320 -320l-1280 -1280l-768 768l320 320l448 -448z" />
    <glyph glyph-name="w" unicode="w" 
d="M1984 1152q28 0 46 -18t18 -46v-384q0 -28 -18 -46t-46 -18h-704v-704q0 -28 -18 -46t-46 -18h-384q-28 0 -46 18t-18 46v704h-704q-28 0 -46 18t-18 46v384q0 28 18 46t46 18h704v704q0 28 18 46t46 18h384q28 0 46 -18t18 -46v-704h704z" />
    <glyph glyph-name="x" unicode="x" 
d="M0 1088q0 28 18 46t46 18h1920q28 0 46 -18t18 -46v-384q0 -28 -18 -46t-46 -18h-1920q-28 0 -46 18t-18 46v384z" />
    <glyph glyph-name="y" unicode="y" 
d="M1408 640v128h-384v-128h384zM1792 1536v-1280h-1536v1280h1536zM1920 128v1536h-1792v-1536h1792zM0 1792h2048v-1792h-2048v1792zM640 1152v-128h128v-128h128v128h-128v128h-128zM640 1152v128h-128v-128h128zM640 768h128v128h-128v-128zM640 768h-128v-128h128v128z
" />
    <glyph glyph-name="z" unicode="z" 
d="M1664 512v776l-376 -436l372 -372q4 16 4 32zM1536 384q16 0 32 4l-364 364l-180 -212l-180 212l-364 -364q16 -4 32 -4h1024zM384 512q0 -16 4 -32l372 372l-376 436v-776zM512 1408q-28 0 -52 -12l564 -656l564 656q-24 12 -52 12h-1024zM1708 1920q140 0 240 -100
t100 -240v-1368q0 -140 -100 -240t-240 -100h-1368q-140 0 -240 100t-100 240v1368q0 140 100 240t240 100h1368z" />
    <glyph glyph-name="uniF000" unicode="&#xf000;" horiz-adv-x="0" 
d="M0 -128v2048l2048 -2048h-2048z" />
  </font>
</defs>
</svg>
